<?xml version="1.0" encoding="utf-8"?>
<!-- Svg Vector Icons : http://www.onlinewebfonts.com/icon -->
<!DOCTYPE svg PUBLIC "-//W3C//DTD SVG 1.1//EN" "http://www.w3.org/Graphics/SVG/1.1/DTD/svg11.dtd">
<svg version="1.1" xmlns="http://www.w3.org/2000/svg" xmlns:xlink="http://www.w3.org/1999/xlink" x="0px" y="0px" viewBox="0 0 1000 1000" enable-background="new 0 0 1000 1000" xml:space="preserve">
<metadata> Svg Vector Icons : http://www.onlinewebfonts.com/icon </metadata>
<g><path d="M983.8,757.7L983.8,757.7c0-5.7-17.2-17.2-17.2-17.2s-11.5-17.2-40.1-40.1c-22.9-22.9-57.2-45.8-80.1-63c-28.6-17.2-51.5-34.3-51.5-34.3l-22.9-11.4c-11.4-5.7-22.9-5.7-34.3,0s-17.2,11.4-22.9,17.2c0-5.7-5.7,5.7-22.9,40.1c-5.7,11.4-17.2,34.3-28.6,51.5c-17.2,28.6-51.5,51.5-91.6,28.6c-51.5-28.6-114.5-68.7-177.5-125.9c-74.4-68.7-114.5-125.9-137.4-177.5c-5.7-17.2-5.7-57.2,28.6-74.4c28.6-17.2,45.8-17.2,68.7-28.6c11.4-5.7,5.7,0,28.6-17.2l5.7-5.7l0,0c11.4-11.4,17.2-28.6,11.4-45.8v-5.7c0,0-17.2-34.3-34.3-68.7c-17.2-22.9-34.3-51.5-45.8-68.7c-40.1-45.8-68.7-63-68.7-63s-11.5-5.7-17.2-5.7c-17.2-11.4-34.3-5.7-51.5,0c-34.3,11.5-51.5,28.6-80.1,51.5C44.9,139.4,4.8,208.1,10.5,265.4C22,357,136.5,557.3,291.1,700.4c148.8,143.1,360.7,251.9,458,263.3c63,5.7,120.2-22.9,171.7-74.4c17.2-17.2,45.8-45.8,57.2-74.4C989.5,803.5,995.2,774.9,983.8,757.7L983.8,757.7L983.8,757.7z"/></g>
</svg>